<?xml version="1.0" encoding="utf-8"?>
<?xml-stylesheet type="text/css" href="../css/svgimage.css" ?>
<svg version="1.1" baseProfile="tiny" xmlns="http://www.w3.org/2000/svg" xmlns:xlink="http://www.w3.org/1999/xlink" x="0px"
	 y="0px" width="398px" height="120.012px" viewBox="0 0 398 120.012" xml:space="preserve">
<g id="Calque_2">
	<g class="black">
		<path d="M51.146,55.183v0.246c0,0.411-0.145,0.739-0.431,0.985c-0.288,0.246-0.637,0.369-1.047,0.369h-24.75
			c0.164,3.284,1.375,6.034,3.632,8.25c2.257,2.217,4.946,3.325,8.065,3.325c2.011,0,3.879-0.493,5.603-1.478
			c1.724-0.985,3.099-2.318,4.125-4.002c0.492-0.821,1.148-0.985,1.97-0.493c0.821,0.575,0.985,1.273,0.493,2.094
			c-1.314,2.093-3.047,3.756-5.203,4.987c-2.155,1.231-4.485,1.847-6.988,1.847c-4.063,0-7.522-1.467-10.374-4.402
			c-2.854-2.934-4.279-6.484-4.279-10.651c0-4.165,1.426-7.727,4.279-10.682c2.852-2.955,6.259-4.433,10.22-4.433
			c3.96,0,7.316,1.345,10.066,4.032C49.277,47.866,50.816,51.202,51.146,55.183z M44.003,46.871
			c-2.135-1.848-4.608-2.771-7.419-2.771c-2.812,0-5.285,0.914-7.419,2.739c-2.135,1.827-3.489,4.178-4.063,7.05h22.842
			C47.451,51.058,46.137,48.718,44.003,46.871z"/>
	</g>
	<g class="black">
		<path d="M64.505,70.082c-0.206,0.821-0.677,1.231-1.416,1.231h-0.37c-0.452-0.123-0.78-0.39-0.985-0.801
			c-0.042-0.04-0.062-0.102-0.062-0.185l-0.062-0.123V42.685c0-0.41,0.143-0.76,0.431-1.047c0.287-0.287,0.636-0.431,1.047-0.431
			c0.41,0,0.749,0.144,1.016,0.431c0.267,0.287,0.4,0.637,0.4,1.047v2.894c2.421-2.914,5.428-4.371,9.02-4.371
			c3.591,0,6.588,1.2,8.989,3.602c2.401,2.401,3.602,5.285,3.602,8.65v16.377c0,0.411-0.145,0.76-0.431,1.047
			c-0.288,0.287-0.637,0.431-1.046,0.431c-0.411,0-0.76-0.144-1.047-0.431c-0.288-0.287-0.431-0.636-0.431-1.047V53.459
			c0-2.545-0.903-4.73-2.709-6.558c-1.807-1.825-3.992-2.739-6.557-2.739c-2.566,0-4.751,0.903-6.557,2.709
			c-1.807,1.807-2.75,4.002-2.832,6.588V70.082z"/>
	</g>
	<g class="black">
		<path d="M110.188,70.144c-0.041,0.246-0.175,0.503-0.4,0.77c-0.226,0.268-0.514,0.4-0.862,0.4
			c-0.349,0-0.688-0.082-1.016-0.246c-0.246-0.246-0.411-0.472-0.493-0.678L96.089,43.423c-0.165-0.369-0.165-0.738,0-1.108
			c0.41-0.902,1.026-1.169,1.847-0.8c0.41,0.164,0.677,0.431,0.8,0.8l10.036,23.766l10.036-23.766c0.123-0.369,0.379-0.636,0.77-0.8
			c0.39-0.164,0.77-0.164,1.139,0c0.862,0.369,1.108,1.006,0.739,1.908L110.188,70.144z"/>
	</g>
	<g class="black">
		<path d="M134.138,34.188v-1.416c0-0.409,0.143-0.759,0.431-1.046c0.287-0.287,0.636-0.432,1.047-0.432
			c0.41,0,0.77,0.145,1.077,0.432c0.308,0.287,0.462,0.637,0.462,1.046v1.416c0,0.452-0.154,0.832-0.462,1.14
			c-0.308,0.308-0.667,0.462-1.077,0.462c-0.411,0-0.76-0.154-1.047-0.462C134.281,35.02,134.138,34.64,134.138,34.188z
			 M134.138,69.836V42.623c0-0.41,0.143-0.76,0.431-1.047c0.287-0.287,0.646-0.431,1.078-0.431c0.431,0,0.79,0.144,1.077,0.431
			c0.287,0.287,0.431,0.637,0.431,1.047v27.213c0,0.411-0.154,0.76-0.462,1.047c-0.308,0.287-0.667,0.431-1.077,0.431
			c-0.411,0-0.76-0.144-1.047-0.431C134.281,70.596,134.138,70.247,134.138,69.836z"/>
	</g>
	<g class="black">
		<path d="M178.404,55.183v0.246c0,0.411-0.145,0.739-0.431,0.985c-0.288,0.246-0.637,0.369-1.047,0.369h-24.75
			c0.164,3.284,1.375,6.034,3.632,8.25c2.257,2.217,4.946,3.325,8.065,3.325c2.011,0,3.879-0.493,5.603-1.478
			c1.724-0.985,3.099-2.318,4.125-4.002c0.492-0.821,1.148-0.985,1.97-0.493c0.821,0.575,0.985,1.273,0.493,2.094
			c-1.314,2.093-3.047,3.756-5.203,4.987c-2.155,1.231-4.485,1.847-6.988,1.847c-4.063,0-7.522-1.467-10.374-4.402
			c-2.854-2.934-4.279-6.484-4.279-10.651c0-4.165,1.426-7.727,4.279-10.682c2.852-2.955,6.259-4.433,10.22-4.433
			c3.96,0,7.316,1.345,10.066,4.032C176.536,47.866,178.075,51.202,178.404,55.183z M171.262,46.871
			c-2.135-1.848-4.608-2.771-7.419-2.771c-2.812,0-5.285,0.914-7.419,2.739c-2.135,1.827-3.489,4.178-4.063,7.05h22.842
			C174.71,51.058,173.396,48.718,171.262,46.871z"/>
	</g>
	<g>
		<path fill="#AE362E" d="M212.885,69.836v-4.371c-1.354,1.807-3.037,3.232-5.049,4.278c-2.012,1.047-4.186,1.57-6.525,1.57
			c-4.064,0-7.512-1.467-10.344-4.402c-2.832-2.934-4.249-6.484-4.249-10.651c0-4.165,1.417-7.727,4.249-10.682
			s6.28-4.433,10.344-4.433c2.34,0,4.514,0.533,6.525,1.601s3.694,2.504,5.049,4.31V29.694c0-0.41,0.154-0.759,0.462-1.047
			c0.308-0.286,0.667-0.431,1.077-0.431s0.76,0.145,1.047,0.431c0.287,0.288,0.432,0.637,0.432,1.047v40.143
			c0,0.411-0.145,0.76-0.432,1.047s-0.637,0.431-1.047,0.431s-0.77-0.144-1.077-0.431S212.885,70.247,212.885,69.836z
			 M189.735,56.26c0,3.346,1.139,6.188,3.417,8.527s4.987,3.51,8.127,3.51c3.141,0,5.828-1.118,8.065-3.355s3.417-4.956,3.54-8.158
			v-0.985c-0.123-3.241-1.303-5.992-3.54-8.25c-2.237-2.257-4.925-3.386-8.065-3.386c-3.14,0-5.849,1.181-8.127,3.54
			C190.875,50.063,189.735,52.915,189.735,56.26z"/>
	</g>
	<g>
		<path fill="#AE362E" d="M255.613,55.183v0.246c0,0.411-0.145,0.739-0.432,0.985s-0.637,0.369-1.047,0.369h-24.75
			c0.164,3.284,1.375,6.034,3.633,8.25c2.256,2.217,4.945,3.325,8.064,3.325c2.012,0,3.879-0.493,5.604-1.478
			c1.724-0.985,3.098-2.318,4.125-4.002c0.492-0.821,1.148-0.985,1.97-0.493c0.821,0.575,0.985,1.273,0.493,2.094
			c-1.314,2.093-3.048,3.756-5.203,4.987c-2.154,1.231-4.484,1.847-6.988,1.847c-4.063,0-7.521-1.467-10.373-4.402
			c-2.854-2.934-4.279-6.484-4.279-10.651c0-4.165,1.426-7.727,4.279-10.682c2.852-2.955,6.258-4.433,10.22-4.433
			c3.96,0,7.315,1.345,10.066,4.032C253.744,47.866,255.283,51.202,255.613,55.183z M248.471,46.871
			c-2.135-1.848-4.607-2.771-7.419-2.771s-5.285,0.914-7.419,2.739c-2.135,1.827-3.489,4.178-4.063,7.05h22.842
			C251.918,51.058,250.604,48.718,248.471,46.871z"/>
	</g>
	<g class="black">
		<path d="M290.091,69.836v-4.371c-1.354,1.807-3.038,3.232-5.048,4.278c-2.012,1.047-4.188,1.57-6.527,1.57
			c-4.063,0-7.511-1.467-10.343-4.402c-2.832-2.934-4.249-6.484-4.249-10.651c0-4.165,1.417-7.727,4.249-10.682
			s6.28-4.433,10.343-4.433c2.34,0,4.516,0.533,6.527,1.601c2.01,1.067,3.693,2.504,5.048,4.31V29.694
			c0-0.41,0.154-0.759,0.462-1.047c0.309-0.286,0.666-0.431,1.078-0.431c0.409,0,0.758,0.145,1.046,0.431
			c0.286,0.288,0.431,0.637,0.431,1.047v40.143c0,0.411-0.145,0.76-0.431,1.047c-0.288,0.287-0.637,0.431-1.046,0.431
			c-0.412,0-0.77-0.144-1.078-0.431C290.245,70.596,290.091,70.247,290.091,69.836z M266.941,56.26c0,3.346,1.139,6.188,3.417,8.527
			s4.987,3.51,8.127,3.51s5.827-1.118,8.065-3.355c2.236-2.237,3.417-4.956,3.54-8.158v-0.985c-0.123-3.241-1.304-5.992-3.54-8.25
			c-2.238-2.257-4.926-3.386-8.065-3.386s-5.849,1.181-8.127,3.54C268.08,50.063,266.941,52.915,266.941,56.26z"/>
	</g>
	<g class="black">
		<path d="M306.652,34.188v-1.416c0-0.409,0.143-0.759,0.43-1.046s0.637-0.432,1.047-0.432s0.77,0.145,1.078,0.432
			c0.308,0.287,0.461,0.637,0.461,1.046v1.416c0,0.452-0.153,0.832-0.461,1.14c-0.309,0.308-0.668,0.462-1.078,0.462
			s-0.76-0.154-1.047-0.462S306.652,34.64,306.652,34.188z M306.652,69.836V42.623c0-0.41,0.143-0.76,0.43-1.047
			s0.646-0.431,1.078-0.431c0.431,0,0.789,0.144,1.077,0.431c0.287,0.287,0.431,0.637,0.431,1.047v27.213
			c0,0.411-0.153,0.76-0.461,1.047c-0.309,0.287-0.668,0.431-1.078,0.431s-0.76-0.144-1.047-0.431S306.652,70.247,306.652,69.836z"
			/>
	</g>
	<g class="black">
		<path d="M323.891,69.836V42.685c0-0.41,0.144-0.76,0.432-1.047c0.286-0.287,0.635-0.431,1.047-0.431
			c0.409,0,0.758,0.144,1.046,0.431c0.286,0.287,0.431,0.637,0.431,1.047v6.649c0.164-0.328,0.309-0.574,0.432-0.739
			c3.16-4.926,7.182-7.388,12.066-7.388c0.41,0,0.76,0.144,1.047,0.431s0.432,0.637,0.432,1.047s-0.145,0.76-0.432,1.047
			s-0.637,0.431-1.047,0.431c-3.283,0-6.197,1.642-8.742,4.925c-1.478,1.971-2.688,4.311-3.633,7.02
			c-0.082,0.164-0.123,0.329-0.123,0.492v13.237c0,0.411-0.145,0.76-0.431,1.047c-0.288,0.287-0.637,0.431-1.046,0.431
			c-0.412,0-0.761-0.144-1.047-0.431C324.034,70.596,323.891,70.247,323.891,69.836z"/>
	</g>
	<g class="black">
		<path d="M374.93,55.183v0.246c0,0.411-0.145,0.739-0.431,0.985c-0.288,0.246-0.637,0.369-1.047,0.369h-24.75
			c0.163,3.284,1.374,6.034,3.632,8.25c2.258,2.217,4.946,3.325,8.066,3.325c2.01,0,3.879-0.493,5.602-1.478
			c1.725-0.985,3.1-2.318,4.126-4.002c0.492-0.821,1.148-0.985,1.97-0.493c0.82,0.575,0.985,1.273,0.492,2.094
			c-1.313,2.093-3.047,3.756-5.202,4.987s-4.485,1.847-6.987,1.847c-4.064,0-7.522-1.467-10.375-4.402
			c-2.854-2.934-4.279-6.484-4.279-10.651c0-4.165,1.426-7.727,4.279-10.682c2.853-2.955,6.26-4.433,10.221-4.433
			s7.316,1.345,10.066,4.032C373.063,47.866,374.602,51.202,374.93,55.183z M367.788,46.871c-2.135-1.848-4.608-2.771-7.419-2.771
			c-2.813,0-5.285,0.914-7.419,2.739c-2.135,1.827-3.489,4.178-4.063,7.05h22.842C371.236,51.058,369.922,48.718,367.788,46.871z"/>
	</g>
</g>
</svg>
