<?xml version="1.0" encoding="utf-8"?>
<!-- Generator: Adobe Illustrator 16.0.0, SVG Export Plug-In . SVG Version: 6.00 Build 0)  -->
<!DOCTYPE svg PUBLIC "-//W3C//DTD SVG 1.1 Tiny//EN" "http://www.w3.org/Graphics/SVG/1.1/DTD/svg11-tiny.dtd">
<svg version="1.1" baseProfile="tiny" xmlns="http://www.w3.org/2000/svg" xmlns:xlink="http://www.w3.org/1999/xlink" x="0px"
	 y="0px" width="398px" height="120.012px" viewBox="0 0 398 120.012" xml:space="preserve">
<g id="Calque_1">
	<g>
		<path fill="#2B2B2B" d="M54.978,95.164c-0.26-0.229-0.282-0.473-0.069-0.732c0.092-0.121,0.213-0.19,0.366-0.205
			c0.152-0.016,0.289,0.03,0.412,0.137c1.189,0.869,2.271,1.304,3.247,1.304s1.746-0.229,2.31-0.687
			c0.564-0.381,0.842-0.826,0.835-1.337c-0.008-0.511-0.26-0.965-0.755-1.361c-0.496-0.396-1.3-0.686-2.413-0.869l-0.045-0.022
			c-1.189-0.213-2.036-0.503-2.539-0.869c-0.808-0.473-1.212-1.144-1.212-2.013c0-0.868,0.404-1.601,1.212-2.195
			c0.732-0.503,1.646-0.754,2.744-0.754c0.442,0,0.888,0.072,1.338,0.217c0.449,0.146,0.792,0.282,1.029,0.412
			c0.236,0.129,0.561,0.323,0.972,0.583c0.122,0.091,0.198,0.214,0.229,0.365c0.03,0.153,0.007,0.29-0.068,0.412
			c-0.077,0.122-0.191,0.198-0.343,0.229c-0.152,0.031-0.29,0.008-0.412-0.068c-0.381-0.259-0.667-0.446-0.857-0.561
			c-0.191-0.114-0.469-0.236-0.835-0.366c-0.366-0.129-0.717-0.194-1.052-0.194c-0.884,0-1.578,0.203-2.081,0.606
			c-0.503,0.404-0.754,0.827-0.754,1.27s0.213,0.831,0.64,1.166c0.533,0.366,1.295,0.625,2.287,0.777h0.046
			c0.991,0.152,1.898,0.457,2.721,0.915c0.838,0.549,1.258,1.284,1.258,2.206c0,0.923-0.416,1.692-1.246,2.311
			c-0.831,0.617-1.772,0.926-2.824,0.926C57.668,96.75,56.289,96.216,54.978,95.164z"/>
	</g>
	<g>
		<path fill="#2B2B2B" d="M70.642,85.56c0.137,0,0.263,0.057,0.377,0.171s0.171,0.24,0.171,0.378c0,0.137-0.057,0.263-0.171,0.377
			s-0.24,0.172-0.377,0.172h-1.44v8.164c0,0.243,0.095,0.442,0.286,0.594c0.19,0.153,0.362,0.229,0.515,0.229
			c0.152,0,0.29,0.061,0.412,0.183c0.122,0.122,0.183,0.251,0.183,0.389c0,0.137-0.062,0.263-0.183,0.377
			c-0.122,0.114-0.251,0.172-0.389,0.172c-0.564,0-1.033-0.183-1.407-0.549s-0.56-0.831-0.56-1.395v-8.164h-1.395
			c-0.244,0-0.396-0.046-0.458-0.138s-0.091-0.213-0.091-0.366c0-0.151,0.007-0.259,0.023-0.319
			c0.046-0.184,0.221-0.274,0.526-0.274h1.395v-4.162c0-0.138,0.057-0.264,0.171-0.378s0.244-0.171,0.389-0.171
			s0.278,0.057,0.4,0.171c0.122,0.114,0.183,0.24,0.183,0.378v4.162H70.642z"/>
	</g>
	<g>
		<path fill="#2B2B2B" d="M74.873,96.216V86.131c0-0.152,0.053-0.282,0.16-0.389s0.236-0.16,0.389-0.16
			c0.152,0,0.282,0.054,0.389,0.16c0.106,0.106,0.16,0.236,0.16,0.389v2.47c0.061-0.122,0.114-0.213,0.16-0.274
			c1.174-1.829,2.668-2.744,4.482-2.744c0.152,0,0.282,0.054,0.389,0.16c0.106,0.106,0.16,0.236,0.16,0.389s-0.054,0.282-0.16,0.389
			c-0.107,0.107-0.236,0.16-0.389,0.16c-1.22,0-2.302,0.61-3.248,1.829c-0.549,0.732-0.999,1.602-1.349,2.607
			c-0.031,0.062-0.045,0.122-0.045,0.183v4.917c0,0.152-0.054,0.282-0.16,0.389c-0.107,0.106-0.237,0.16-0.389,0.16
			c-0.153,0-0.283-0.054-0.389-0.16S74.873,96.368,74.873,96.216z"/>
	</g>
	<g>
		<path fill="#2B2B2B" d="M92.824,85.72c0.106-0.106,0.236-0.16,0.389-0.16s0.282,0.054,0.389,0.16
			c0.106,0.106,0.16,0.236,0.16,0.389v10.107c0,0.152-0.053,0.282-0.16,0.389c-0.107,0.106-0.237,0.16-0.389,0.16
			s-0.282-0.054-0.389-0.16c-0.107-0.106-0.16-0.236-0.16-0.389v-1.669c-0.488,0.686-1.102,1.227-1.841,1.623
			c-0.74,0.396-1.528,0.595-2.367,0.595c-1.464,0-2.714-0.549-3.75-1.646c-1.037-1.098-1.555-2.416-1.555-3.956
			s0.518-2.858,1.555-3.956c1.037-1.098,2.287-1.646,3.75-1.646c0.838,0,1.627,0.198,2.367,0.594
			c0.739,0.397,1.353,0.931,1.841,1.602v-1.646C92.664,85.956,92.717,85.826,92.824,85.72z M84.248,91.162
			c0,1.25,0.416,2.313,1.247,3.19c0.831,0.876,1.821,1.314,2.973,1.314c1.151,0,2.138-0.438,2.961-1.314
			c0.823-0.877,1.235-1.94,1.235-3.19s-0.412-2.317-1.235-3.202c-0.823-0.884-1.811-1.326-2.961-1.326
			c-1.151,0-2.142,0.442-2.973,1.326C84.664,88.845,84.248,89.912,84.248,91.162z"/>
	</g>
	<g>
		<path fill="#2B2B2B" d="M101.879,85.56c0.137,0,0.263,0.057,0.377,0.171s0.171,0.24,0.171,0.378c0,0.137-0.057,0.263-0.171,0.377
			s-0.24,0.172-0.377,0.172h-1.44v8.164c0,0.243,0.095,0.442,0.286,0.594c0.19,0.153,0.362,0.229,0.515,0.229
			c0.152,0,0.29,0.061,0.412,0.183c0.122,0.122,0.183,0.251,0.183,0.389c0,0.137-0.062,0.263-0.183,0.377
			c-0.122,0.114-0.251,0.172-0.389,0.172c-0.564,0-1.033-0.183-1.407-0.549s-0.56-0.831-0.56-1.395v-8.164H97.9
			c-0.244,0-0.396-0.046-0.458-0.138s-0.091-0.213-0.091-0.366c0-0.151,0.007-0.259,0.023-0.319
			c0.046-0.184,0.221-0.274,0.526-0.274h1.395v-4.162c0-0.138,0.057-0.264,0.171-0.378s0.244-0.171,0.389-0.171
			s0.278,0.057,0.4,0.171c0.122,0.114,0.183,0.24,0.183,0.378v4.162H101.879z"/>
	</g>
	<g>
		<path fill="#2B2B2B" d="M117.544,91.231c-0.107,0.092-0.237,0.138-0.389,0.138h-9.193c0.061,1.22,0.511,2.24,1.35,3.063
			c0.838,0.823,1.837,1.235,2.996,1.235c0.747,0,1.44-0.183,2.081-0.549c0.64-0.366,1.151-0.861,1.532-1.486
			c0.183-0.305,0.426-0.366,0.731-0.183c0.305,0.213,0.366,0.473,0.183,0.777c-0.488,0.777-1.132,1.395-1.932,1.852
			c-0.801,0.458-1.666,0.687-2.596,0.687c-1.509,0-2.794-0.545-3.854-1.635s-1.589-2.409-1.589-3.956c0-1.548,0.53-2.87,1.589-3.968
			s2.325-1.646,3.796-1.646c1.471,0,2.717,0.499,3.739,1.497c1.021,0.999,1.593,2.238,1.715,3.717v0.091
			C117.704,91.018,117.65,91.139,117.544,91.231z M108.031,90.293h8.484c-0.183-1.052-0.671-1.921-1.463-2.607
			c-0.793-0.686-1.711-1.028-2.756-1.028s-1.963,0.339-2.755,1.018C108.747,88.354,108.244,89.226,108.031,90.293z M113.588,81.672
			c0.167-0.168,0.251-0.309,0.251-0.423c0-0.115-0.107-0.229-0.32-0.344c-0.214-0.114-0.435-0.171-0.663-0.171
			s-0.435,0.137-0.618,0.411l-1.417,2.127c-0.061,0.092-0.092,0.176-0.092,0.252c0,0.137,0.118,0.205,0.354,0.205
			s0.461-0.099,0.675-0.297L113.588,81.672z"/>
	</g>
	<g>
		<path fill="#2B2B2B" d="M131.379,86.109v9.765c0,1.448-0.515,2.687-1.544,3.716c-1.029,1.029-2.275,1.544-3.739,1.544
			c-0.747,0-1.525-0.176-2.333-0.526c-0.305-0.214-0.381-0.457-0.229-0.731c0.168-0.352,0.412-0.435,0.732-0.252
			c0.579,0.274,1.189,0.412,1.83,0.412c1.158,0,2.146-0.404,2.961-1.212c0.815-0.809,1.224-1.792,1.224-2.95v-1.372
			c-0.473,0.686-1.075,1.224-1.807,1.612c-0.732,0.389-1.525,0.583-2.378,0.583c-1.463,0-2.707-0.545-3.728-1.636
			c-1.021-1.09-1.532-2.4-1.532-3.933s0.515-2.844,1.543-3.934c1.029-1.09,2.268-1.635,3.716-1.635c0.838,0,1.627,0.198,2.367,0.594
			c0.739,0.397,1.345,0.931,1.818,1.602v-1.646c0-0.152,0.057-0.282,0.171-0.389s0.244-0.16,0.389-0.16
			c0.145,0,0.271,0.054,0.377,0.16C131.326,85.826,131.379,85.956,131.379,86.109z M121.935,91.128c0,1.242,0.408,2.302,1.224,3.179
			c0.815,0.877,1.798,1.314,2.95,1.314c1.151,0,2.134-0.438,2.95-1.314c0.815-0.877,1.224-1.94,1.224-3.19s-0.408-2.306-1.224-3.167
			c-0.816-0.861-1.799-1.292-2.95-1.292c-1.151,0-2.134,0.435-2.95,1.303C122.342,88.829,121.935,89.885,121.935,91.128z"/>
	</g>
	<g>
		<path fill="#2B2B2B" d="M136.707,82.976v-0.526c0-0.152,0.053-0.282,0.16-0.389c0.106-0.106,0.236-0.16,0.389-0.16
			s0.286,0.054,0.4,0.16s0.171,0.236,0.171,0.389v0.526c0,0.167-0.057,0.309-0.171,0.423s-0.248,0.171-0.4,0.171
			s-0.282-0.057-0.389-0.171C136.76,83.284,136.707,83.143,136.707,82.976z M136.707,96.216V86.109c0-0.152,0.053-0.282,0.16-0.389
			c0.106-0.106,0.24-0.16,0.4-0.16s0.293,0.054,0.4,0.16c0.107,0.106,0.16,0.236,0.16,0.389v10.107c0,0.152-0.057,0.282-0.171,0.389
			s-0.248,0.16-0.4,0.16s-0.282-0.054-0.389-0.16C136.76,96.498,136.707,96.368,136.707,96.216z"/>
	</g>
	<g>
		<path fill="#2B2B2B" d="M153.149,90.774v0.091c0,0.153-0.054,0.274-0.16,0.366c-0.107,0.092-0.237,0.138-0.389,0.138h-9.193
			c0.061,1.22,0.511,2.24,1.35,3.063c0.838,0.823,1.837,1.235,2.996,1.235c0.747,0,1.44-0.183,2.081-0.549
			c0.64-0.366,1.151-0.861,1.532-1.486c0.183-0.305,0.426-0.366,0.731-0.183c0.305,0.213,0.366,0.473,0.183,0.777
			c-0.488,0.777-1.132,1.395-1.932,1.852c-0.801,0.458-1.666,0.687-2.596,0.687c-1.509,0-2.794-0.545-3.854-1.635
			s-1.589-2.409-1.589-3.956c0-1.548,0.53-2.87,1.589-3.968s2.325-1.646,3.796-1.646c1.471,0,2.717,0.499,3.739,1.497
			C152.455,88.056,153.026,89.295,153.149,90.774z M150.496,87.686c-0.793-0.686-1.711-1.028-2.756-1.028s-1.963,0.339-2.755,1.018
			c-0.793,0.679-1.296,1.551-1.509,2.618h8.484C151.777,89.241,151.289,88.372,150.496,87.686z"/>
	</g>
	<g>
		<path fill="#2B2B2B" d="M156.328,95.164c-0.26-0.229-0.282-0.473-0.069-0.732c0.092-0.121,0.213-0.19,0.366-0.205
			c0.152-0.016,0.289,0.03,0.412,0.137c1.189,0.869,2.271,1.304,3.247,1.304s1.746-0.229,2.31-0.687
			c0.564-0.381,0.842-0.826,0.835-1.337c-0.008-0.511-0.26-0.965-0.755-1.361c-0.496-0.396-1.3-0.686-2.413-0.869l-0.045-0.022
			c-1.189-0.213-2.036-0.503-2.539-0.869c-0.808-0.473-1.212-1.144-1.212-2.013c0-0.868,0.404-1.601,1.212-2.195
			c0.732-0.503,1.646-0.754,2.744-0.754c0.442,0,0.888,0.072,1.338,0.217c0.449,0.146,0.792,0.282,1.029,0.412
			c0.236,0.129,0.561,0.323,0.972,0.583c0.122,0.091,0.198,0.214,0.229,0.365c0.03,0.153,0.007,0.29-0.068,0.412
			c-0.077,0.122-0.191,0.198-0.343,0.229c-0.152,0.031-0.29,0.008-0.412-0.068c-0.381-0.259-0.667-0.446-0.857-0.561
			c-0.191-0.114-0.469-0.236-0.835-0.366c-0.366-0.129-0.717-0.194-1.052-0.194c-0.884,0-1.578,0.203-2.081,0.606
			c-0.503,0.404-0.754,0.827-0.754,1.27s0.213,0.831,0.64,1.166c0.533,0.366,1.295,0.625,2.287,0.777h0.046
			c0.991,0.152,1.898,0.457,2.721,0.915c0.838,0.549,1.258,1.284,1.258,2.206c0,0.923-0.416,1.692-1.246,2.311
			c-0.831,0.617-1.772,0.926-2.824,0.926C159.018,96.75,157.639,96.216,156.328,95.164z"/>
	</g>
	<g>
		<path fill="#2B2B2B" d="M183.608,85.72c0.106-0.106,0.236-0.16,0.389-0.16s0.282,0.054,0.389,0.16
			c0.106,0.106,0.16,0.236,0.16,0.389v10.107c0,0.152-0.053,0.282-0.16,0.389c-0.107,0.106-0.237,0.16-0.389,0.16
			s-0.282-0.054-0.389-0.16c-0.107-0.106-0.16-0.236-0.16-0.389v-1.669c-0.488,0.686-1.102,1.227-1.841,1.623
			c-0.74,0.396-1.528,0.595-2.367,0.595c-1.464,0-2.714-0.549-3.75-1.646c-1.037-1.098-1.555-2.416-1.555-3.956
			s0.518-2.858,1.555-3.956c1.037-1.098,2.287-1.646,3.75-1.646c0.838,0,1.627,0.198,2.367,0.594
			c0.739,0.397,1.353,0.931,1.841,1.602v-1.646C183.448,85.956,183.501,85.826,183.608,85.72z M175.033,91.162
			c0,1.25,0.416,2.313,1.247,3.19c0.831,0.876,1.821,1.314,2.973,1.314c1.151,0,2.138-0.438,2.961-1.314
			c0.823-0.877,1.235-1.94,1.235-3.19s-0.412-2.317-1.235-3.202c-0.823-0.884-1.811-1.326-2.961-1.326
			c-1.151,0-2.142,0.442-2.973,1.326C175.448,88.845,175.033,89.912,175.033,91.162z"/>
	</g>
	<g>
		<path fill="#2B2B2B" d="M189.074,92.192v-6.106c0-0.152,0.053-0.281,0.16-0.389c0.106-0.106,0.236-0.16,0.389-0.16
			s0.282,0.054,0.389,0.16c0.106,0.107,0.16,0.236,0.16,0.389v6.106c0,0.96,0.335,1.775,1.006,2.446s1.479,1.015,2.424,1.029
			c0.96-0.015,1.78-0.358,2.458-1.029c0.678-0.671,1.018-1.486,1.018-2.446v-6.106c0-0.152,0.057-0.281,0.171-0.389
			c0.115-0.106,0.248-0.16,0.4-0.16s0.282,0.054,0.389,0.16c0.106,0.107,0.16,0.236,0.16,0.389v6.106
			c0,1.266-0.446,2.344-1.338,3.235c-0.892,0.892-1.971,1.338-3.236,1.338c-1.266,0-2.34-0.446-3.224-1.338
			C189.516,94.535,189.074,93.457,189.074,92.192z"/>
	</g>
	<g>
		<path fill="#2B2B2B" d="M212.285,96.216v-1.624c-0.503,0.672-1.128,1.201-1.875,1.59s-1.555,0.583-2.424,0.583
			c-1.51,0-2.79-0.545-3.842-1.635c-1.053-1.09-1.578-2.409-1.578-3.956c0-1.548,0.525-2.87,1.578-3.968
			c1.052-1.098,2.332-1.646,3.842-1.646c0.869,0,1.677,0.198,2.424,0.594c0.747,0.397,1.372,0.931,1.875,1.602v-6.449
			c0-0.152,0.058-0.282,0.172-0.389s0.248-0.16,0.4-0.16s0.281,0.054,0.389,0.16c0.106,0.106,0.16,0.236,0.16,0.389v14.91
			c0,0.152-0.054,0.282-0.16,0.389c-0.107,0.106-0.236,0.16-0.389,0.16s-0.286-0.054-0.4-0.16S212.285,96.368,212.285,96.216z
			 M203.688,91.174c0,1.242,0.422,2.298,1.269,3.167s1.853,1.304,3.019,1.304s2.164-0.416,2.996-1.247
			c0.83-0.83,1.27-1.841,1.314-3.029v-0.366c-0.045-1.204-0.484-2.226-1.314-3.064c-0.832-0.838-1.83-1.258-2.996-1.258
			s-2.172,0.438-3.019,1.315C204.109,88.871,203.688,89.931,203.688,91.174z"/>
	</g>
	<g>
		<path fill="#2B2B2B" d="M218.436,82.976v-0.526c0-0.152,0.053-0.282,0.16-0.389c0.106-0.106,0.236-0.16,0.389-0.16
			s0.286,0.054,0.4,0.16s0.172,0.236,0.172,0.389v0.526c0,0.167-0.058,0.309-0.172,0.423s-0.248,0.171-0.4,0.171
			s-0.282-0.057-0.389-0.171C218.488,83.284,218.436,83.143,218.436,82.976z M218.436,96.216V86.109c0-0.152,0.053-0.282,0.16-0.389
			c0.106-0.106,0.24-0.16,0.4-0.16s0.293,0.054,0.4,0.16c0.106,0.106,0.16,0.236,0.16,0.389v10.107c0,0.152-0.058,0.282-0.172,0.389
			s-0.248,0.16-0.4,0.16s-0.282-0.054-0.389-0.16C218.488,96.498,218.436,96.368,218.436,96.216z"/>
	</g>
	<g>
		<path fill="#2B2B2B" d="M225.867,95.107c-1.037-1.104-1.555-2.42-1.555-3.944s0.518-2.84,1.555-3.945
			c1.037-1.104,2.287-1.657,3.751-1.657s2.714,0.553,3.751,1.657c1.036,1.105,1.555,2.421,1.555,3.945s-0.519,2.84-1.555,3.944
			c-1.037,1.105-2.287,1.658-3.751,1.658S226.904,96.212,225.867,95.107z M229.618,86.634c-1.144,0-2.131,0.442-2.962,1.326
			c-0.83,0.885-1.246,1.948-1.246,3.19c0,1.243,0.416,2.307,1.246,3.19c0.831,0.884,1.818,1.326,2.962,1.326s2.13-0.442,2.962-1.326
			c0.83-0.884,1.246-1.947,1.246-3.19c0-1.242-0.416-2.306-1.246-3.19C231.748,87.076,230.762,86.634,229.618,86.634z"/>
	</g>
	<g>
		<path fill="#AF352D" d="M237.57,93.097c0-0.851,0.229-1.581,0.688-2.192c0.458-0.61,1.027-1.072,1.709-1.384
			c-0.457-0.539-0.809-1.048-1.055-1.527s-0.369-1.024-0.369-1.636c0-0.947,0.311-1.693,0.932-2.238
			c0.619-0.546,1.39-0.818,2.309-0.818c0.885,0,1.599,0.204,2.144,0.611c0.545,0.408,0.817,0.779,0.817,1.115
			c0,0.156-0.055,0.285-0.163,0.387c-0.109,0.102-0.242,0.152-0.399,0.152c-0.098,0-0.209-0.065-0.336-0.197
			c-0.128-0.132-0.255-0.278-0.382-0.44c-0.128-0.162-0.337-0.309-0.627-0.44s-0.624-0.197-0.999-0.197
			c-0.654,0-1.168,0.194-1.544,0.584c-0.376,0.389-0.563,0.907-0.563,1.555c0,0.396,0.092,0.79,0.273,1.186s0.371,0.716,0.572,0.962
			c0.199,0.245,0.48,0.565,0.844,0.961l3.688,3.99c0.352-0.791,0.557-1.881,0.617-3.271c0.012-0.18,0.055-0.306,0.127-0.378
			c0.071-0.072,0.209-0.108,0.414-0.108c0.335,0,0.504,0.21,0.504,0.63c0,1.449-0.301,2.762-0.9,3.936l1.656,1.788
			c0.072,0.084,0.107,0.168,0.107,0.252c0,0.135-0.057,0.254-0.171,0.357c-0.114,0.104-0.237,0.156-0.369,0.156
			c-0.12,0-0.233-0.055-0.342-0.164l-1.462-1.581c-0.884,1.199-2.095,1.799-3.633,1.799c-1.248,0-2.242-0.373-2.979-1.119
			C237.939,95.078,237.57,94.169,237.57,93.097z M238.759,92.99c0,0.803,0.276,1.479,0.829,2.031
			c0.553,0.551,1.304,0.826,2.253,0.826c1.202,0,2.103-0.485,2.704-1.456l-3.906-4.115c-0.26,0.156-0.473,0.297-0.639,0.423
			c-0.165,0.126-0.357,0.299-0.576,0.521s-0.385,0.482-0.496,0.782C238.814,92.301,238.759,92.63,238.759,92.99z"/>
	</g>
	<g>
		<path fill="#2B2B2B" d="M254.502,96.33c-0.016,0.092-0.065,0.187-0.148,0.286c-0.084,0.1-0.191,0.148-0.32,0.148
			c-0.13,0-0.256-0.03-0.377-0.092c-0.092-0.091-0.153-0.175-0.184-0.251l-4.208-10.017c-0.062-0.137-0.062-0.274,0-0.411
			c0.152-0.336,0.381-0.435,0.687-0.298c0.152,0.062,0.252,0.16,0.297,0.298l3.728,8.827l3.728-8.827
			c0.046-0.138,0.141-0.236,0.286-0.298c0.145-0.061,0.286-0.061,0.423,0c0.32,0.138,0.412,0.374,0.274,0.709L254.502,96.33z"/>
	</g>
	<g>
		<path fill="#2B2B2B" d="M263.396,82.976v-0.526c0-0.152,0.053-0.282,0.16-0.389c0.106-0.106,0.236-0.16,0.389-0.16
			s0.286,0.054,0.4,0.16s0.172,0.236,0.172,0.389v0.526c0,0.167-0.058,0.309-0.172,0.423s-0.248,0.171-0.4,0.171
			s-0.282-0.057-0.389-0.171C263.449,83.284,263.396,83.143,263.396,82.976z M263.396,96.216V86.109c0-0.152,0.053-0.282,0.16-0.389
			c0.106-0.106,0.24-0.16,0.4-0.16s0.293,0.054,0.4,0.16c0.106,0.106,0.16,0.236,0.16,0.389v10.107c0,0.152-0.058,0.282-0.172,0.389
			s-0.248,0.16-0.4,0.16s-0.282-0.054-0.389-0.16C263.449,96.498,263.396,96.368,263.396,96.216z"/>
	</g>
	<g>
		<path fill="#2B2B2B" d="M269.091,95.164c-0.26-0.229-0.282-0.473-0.069-0.732c0.092-0.121,0.214-0.19,0.367-0.205
			c0.151-0.016,0.289,0.03,0.411,0.137c1.188,0.869,2.271,1.304,3.247,1.304s1.746-0.229,2.31-0.687
			c0.563-0.381,0.843-0.826,0.835-1.337s-0.26-0.965-0.755-1.361s-1.3-0.686-2.413-0.869l-0.045-0.022
			c-1.189-0.213-2.035-0.503-2.539-0.869c-0.808-0.473-1.211-1.144-1.211-2.013c0-0.868,0.403-1.601,1.211-2.195
			c0.732-0.503,1.646-0.754,2.744-0.754c0.442,0,0.889,0.072,1.338,0.217c0.449,0.146,0.793,0.282,1.029,0.412
			c0.236,0.129,0.561,0.323,0.973,0.583c0.121,0.091,0.197,0.214,0.229,0.365c0.029,0.153,0.007,0.29-0.068,0.412
			c-0.077,0.122-0.191,0.198-0.344,0.229c-0.152,0.031-0.289,0.008-0.412-0.068c-0.381-0.259-0.666-0.446-0.857-0.561
			c-0.19-0.114-0.469-0.236-0.834-0.366c-0.366-0.129-0.717-0.194-1.053-0.194c-0.884,0-1.578,0.203-2.08,0.606
			c-0.504,0.404-0.755,0.827-0.755,1.27s0.213,0.831,0.64,1.166c0.533,0.366,1.296,0.625,2.287,0.777h0.046
			c0.991,0.152,1.897,0.457,2.722,0.915c0.838,0.549,1.258,1.284,1.258,2.206c0,0.923-0.416,1.692-1.246,2.311
			c-0.832,0.617-1.773,0.926-2.824,0.926C271.781,96.75,270.402,96.216,269.091,95.164z"/>
	</g>
	<g>
		<path fill="#2B2B2B" d="M280.822,92.192v-6.106c0-0.152,0.053-0.281,0.16-0.389c0.105-0.106,0.236-0.16,0.389-0.16
			s0.281,0.054,0.389,0.16c0.105,0.107,0.16,0.236,0.16,0.389v6.106c0,0.96,0.335,1.775,1.006,2.446s1.479,1.015,2.424,1.029
			c0.961-0.015,1.779-0.358,2.459-1.029c0.678-0.671,1.018-1.486,1.018-2.446v-6.106c0-0.152,0.057-0.281,0.171-0.389
			c0.114-0.106,0.248-0.16,0.4-0.16s0.282,0.054,0.389,0.16c0.106,0.107,0.16,0.236,0.16,0.389v6.106
			c0,1.266-0.446,2.344-1.338,3.235s-1.971,1.338-3.235,1.338c-1.266,0-2.341-0.446-3.225-1.338
			C281.264,94.535,280.822,93.457,280.822,92.192z"/>
	</g>
	<g>
		<path fill="#2B2B2B" d="M305.108,90.774v0.091c0,0.153-0.054,0.274-0.16,0.366s-0.237,0.138-0.389,0.138h-9.193
			c0.062,1.22,0.511,2.24,1.35,3.063c0.838,0.823,1.837,1.235,2.995,1.235c0.747,0,1.441-0.183,2.082-0.549
			c0.64-0.366,1.15-0.861,1.531-1.486c0.184-0.305,0.427-0.366,0.732-0.183c0.305,0.213,0.365,0.473,0.183,0.777
			c-0.488,0.777-1.132,1.395-1.933,1.852c-0.801,0.458-1.666,0.687-2.596,0.687c-1.509,0-2.793-0.545-3.854-1.635
			c-1.059-1.09-1.589-2.409-1.589-3.956c0-1.548,0.53-2.87,1.589-3.968c1.061-1.098,2.325-1.646,3.797-1.646
			c1.471,0,2.717,0.499,3.738,1.497C304.414,88.056,304.986,89.295,305.108,90.774z M302.455,87.686
			c-0.793-0.686-1.711-1.028-2.756-1.028c-1.044,0-1.963,0.339-2.755,1.018c-0.793,0.679-1.296,1.551-1.509,2.618h8.483
			C303.736,89.241,303.248,88.372,302.455,87.686z"/>
	</g>
	<g>
		<path fill="#2B2B2B" d="M309.154,96.216v-14.91c0-0.152,0.054-0.282,0.16-0.389c0.107-0.106,0.236-0.16,0.389-0.16
			s0.287,0.054,0.4,0.16c0.115,0.106,0.172,0.236,0.172,0.389v14.91c0,0.152-0.057,0.282-0.172,0.389
			c-0.113,0.106-0.248,0.16-0.4,0.16s-0.281-0.054-0.389-0.16C309.208,96.498,309.154,96.368,309.154,96.216z"/>
	</g>
	<g>
		<path fill="#2B2B2B" d="M314.85,96.216v-14.91c0-0.152,0.053-0.282,0.16-0.389c0.105-0.106,0.236-0.16,0.389-0.16
			s0.285,0.054,0.4,0.16c0.113,0.106,0.171,0.236,0.171,0.389v14.91c0,0.152-0.058,0.282-0.171,0.389
			c-0.115,0.106-0.248,0.16-0.4,0.16s-0.283-0.054-0.389-0.16C314.902,96.498,314.85,96.368,314.85,96.216z"/>
	</g>
	<g>
		<path fill="#2B2B2B" d="M331.406,90.774v0.091c0,0.153-0.054,0.274-0.16,0.366c-0.107,0.092-0.236,0.138-0.389,0.138h-9.193
			c0.061,1.22,0.511,2.24,1.35,3.063c0.838,0.823,1.837,1.235,2.996,1.235c0.746,0,1.439-0.183,2.08-0.549s1.151-0.861,1.533-1.486
			c0.182-0.305,0.426-0.366,0.73-0.183c0.306,0.213,0.367,0.473,0.184,0.777c-0.488,0.777-1.132,1.395-1.932,1.852
			c-0.801,0.458-1.666,0.687-2.596,0.687c-1.51,0-2.795-0.545-3.854-1.635c-1.061-1.09-1.59-2.409-1.59-3.956
			c0-1.548,0.529-2.87,1.59-3.968c1.059-1.098,2.324-1.646,3.796-1.646s2.718,0.499,3.739,1.497
			C330.713,88.056,331.283,89.295,331.406,90.774z M328.754,87.686c-0.793-0.686-1.712-1.028-2.756-1.028
			c-1.045,0-1.963,0.339-2.756,1.018s-1.296,1.551-1.51,2.618h8.484C330.034,89.241,329.546,88.372,328.754,87.686z"/>
	</g>
	<g>
		<path fill="#2B2B2B" d="M334.585,95.164c-0.26-0.229-0.282-0.473-0.069-0.732c0.092-0.121,0.214-0.19,0.367-0.205
			c0.151-0.016,0.289,0.03,0.411,0.137c1.188,0.869,2.271,1.304,3.247,1.304s1.746-0.229,2.31-0.687
			c0.563-0.381,0.843-0.826,0.835-1.337s-0.26-0.965-0.755-1.361s-1.3-0.686-2.413-0.869l-0.045-0.022
			c-1.189-0.213-2.035-0.503-2.539-0.869c-0.808-0.473-1.211-1.144-1.211-2.013c0-0.868,0.403-1.601,1.211-2.195
			c0.732-0.503,1.646-0.754,2.744-0.754c0.442,0,0.889,0.072,1.338,0.217c0.449,0.146,0.793,0.282,1.029,0.412
			c0.236,0.129,0.561,0.323,0.973,0.583c0.121,0.091,0.197,0.214,0.229,0.365c0.029,0.153,0.007,0.29-0.068,0.412
			c-0.077,0.122-0.191,0.198-0.344,0.229c-0.152,0.031-0.289,0.008-0.412-0.068c-0.381-0.259-0.666-0.446-0.857-0.561
			c-0.19-0.114-0.469-0.236-0.834-0.366c-0.366-0.129-0.717-0.194-1.053-0.194c-0.884,0-1.578,0.203-2.08,0.606
			c-0.504,0.404-0.755,0.827-0.755,1.27s0.213,0.831,0.64,1.166c0.533,0.366,1.296,0.625,2.287,0.777h0.046
			c0.991,0.152,1.897,0.457,2.722,0.915c0.838,0.549,1.258,1.284,1.258,2.206c0,0.923-0.416,1.692-1.246,2.311
			c-0.832,0.617-1.773,0.926-2.824,0.926C337.275,96.75,335.896,96.216,334.585,95.164z"/>
	</g>
</g>
<g id="Calque_2">
	<g>
		<path fill="#2B2B2B" d="M51.146,55.183v0.246c0,0.411-0.145,0.739-0.431,0.985c-0.288,0.246-0.637,0.369-1.047,0.369h-24.75
			c0.164,3.284,1.375,6.034,3.632,8.25c2.257,2.217,4.946,3.325,8.065,3.325c2.011,0,3.879-0.493,5.603-1.478
			c1.724-0.985,3.099-2.318,4.125-4.002c0.492-0.821,1.148-0.985,1.97-0.493c0.821,0.575,0.985,1.273,0.493,2.094
			c-1.314,2.093-3.047,3.756-5.203,4.987c-2.155,1.231-4.485,1.847-6.988,1.847c-4.063,0-7.522-1.467-10.374-4.402
			c-2.854-2.934-4.279-6.484-4.279-10.651c0-4.165,1.426-7.727,4.279-10.682c2.852-2.955,6.259-4.433,10.22-4.433
			c3.96,0,7.316,1.345,10.066,4.032C49.277,47.866,50.816,51.202,51.146,55.183z M44.003,46.871
			c-2.135-1.848-4.608-2.771-7.419-2.771c-2.812,0-5.285,0.914-7.419,2.739c-2.135,1.827-3.489,4.178-4.063,7.05h22.842
			C47.451,51.058,46.137,48.718,44.003,46.871z"/>
	</g>
	<g>
		<path fill="#2B2B2B" d="M64.505,70.082c-0.206,0.821-0.677,1.231-1.416,1.231h-0.37c-0.452-0.123-0.78-0.39-0.985-0.801
			c-0.042-0.04-0.062-0.102-0.062-0.185l-0.062-0.123V42.685c0-0.41,0.143-0.76,0.431-1.047c0.287-0.287,0.636-0.431,1.047-0.431
			c0.41,0,0.749,0.144,1.016,0.431c0.267,0.287,0.4,0.637,0.4,1.047v2.894c2.421-2.914,5.428-4.371,9.02-4.371
			c3.591,0,6.588,1.2,8.989,3.602c2.401,2.401,3.602,5.285,3.602,8.65v16.377c0,0.411-0.145,0.76-0.431,1.047
			c-0.288,0.287-0.637,0.431-1.046,0.431c-0.411,0-0.76-0.144-1.047-0.431c-0.288-0.287-0.431-0.636-0.431-1.047V53.459
			c0-2.545-0.903-4.73-2.709-6.558c-1.807-1.825-3.992-2.739-6.557-2.739c-2.566,0-4.751,0.903-6.557,2.709
			c-1.807,1.807-2.75,4.002-2.832,6.588V70.082z"/>
	</g>
	<g>
		<path fill="#2B2B2B" d="M110.188,70.144c-0.041,0.246-0.175,0.503-0.4,0.77c-0.226,0.268-0.514,0.4-0.862,0.4
			c-0.349,0-0.688-0.082-1.016-0.246c-0.246-0.246-0.411-0.472-0.493-0.678L96.089,43.423c-0.165-0.369-0.165-0.738,0-1.108
			c0.41-0.902,1.026-1.169,1.847-0.8c0.41,0.164,0.677,0.431,0.8,0.8l10.036,23.766l10.036-23.766c0.123-0.369,0.379-0.636,0.77-0.8
			c0.39-0.164,0.77-0.164,1.139,0c0.862,0.369,1.108,1.006,0.739,1.908L110.188,70.144z"/>
	</g>
	<g>
		<path fill="#2B2B2B" d="M134.138,34.188v-1.416c0-0.409,0.143-0.759,0.431-1.046c0.287-0.287,0.636-0.432,1.047-0.432
			c0.41,0,0.77,0.145,1.077,0.432c0.308,0.287,0.462,0.637,0.462,1.046v1.416c0,0.452-0.154,0.832-0.462,1.14
			c-0.308,0.308-0.667,0.462-1.077,0.462c-0.411,0-0.76-0.154-1.047-0.462C134.281,35.02,134.138,34.64,134.138,34.188z
			 M134.138,69.836V42.623c0-0.41,0.143-0.76,0.431-1.047c0.287-0.287,0.646-0.431,1.078-0.431c0.431,0,0.79,0.144,1.077,0.431
			c0.287,0.287,0.431,0.637,0.431,1.047v27.213c0,0.411-0.154,0.76-0.462,1.047c-0.308,0.287-0.667,0.431-1.077,0.431
			c-0.411,0-0.76-0.144-1.047-0.431C134.281,70.596,134.138,70.247,134.138,69.836z"/>
	</g>
	<g>
		<path fill="#2B2B2B" d="M178.404,55.183v0.246c0,0.411-0.145,0.739-0.431,0.985c-0.288,0.246-0.637,0.369-1.047,0.369h-24.75
			c0.164,3.284,1.375,6.034,3.632,8.25c2.257,2.217,4.946,3.325,8.065,3.325c2.011,0,3.879-0.493,5.603-1.478
			c1.724-0.985,3.099-2.318,4.125-4.002c0.492-0.821,1.148-0.985,1.97-0.493c0.821,0.575,0.985,1.273,0.493,2.094
			c-1.314,2.093-3.047,3.756-5.203,4.987c-2.155,1.231-4.485,1.847-6.988,1.847c-4.063,0-7.522-1.467-10.374-4.402
			c-2.854-2.934-4.279-6.484-4.279-10.651c0-4.165,1.426-7.727,4.279-10.682c2.852-2.955,6.259-4.433,10.22-4.433
			c3.96,0,7.316,1.345,10.066,4.032C176.536,47.866,178.075,51.202,178.404,55.183z M171.262,46.871
			c-2.135-1.848-4.608-2.771-7.419-2.771c-2.812,0-5.285,0.914-7.419,2.739c-2.135,1.827-3.489,4.178-4.063,7.05h22.842
			C174.71,51.058,173.396,48.718,171.262,46.871z"/>
	</g>
	<g>
		<path fill="#AE362E" d="M212.885,69.836v-4.371c-1.354,1.807-3.037,3.232-5.049,4.278c-2.012,1.047-4.186,1.57-6.525,1.57
			c-4.064,0-7.512-1.467-10.344-4.402c-2.832-2.934-4.249-6.484-4.249-10.651c0-4.165,1.417-7.727,4.249-10.682
			s6.28-4.433,10.344-4.433c2.34,0,4.514,0.533,6.525,1.601s3.694,2.504,5.049,4.31V29.694c0-0.41,0.154-0.759,0.462-1.047
			c0.308-0.286,0.667-0.431,1.077-0.431s0.76,0.145,1.047,0.431c0.287,0.288,0.432,0.637,0.432,1.047v40.143
			c0,0.411-0.145,0.76-0.432,1.047s-0.637,0.431-1.047,0.431s-0.77-0.144-1.077-0.431S212.885,70.247,212.885,69.836z
			 M189.735,56.26c0,3.346,1.139,6.188,3.417,8.527s4.987,3.51,8.127,3.51c3.141,0,5.828-1.118,8.065-3.355s3.417-4.956,3.54-8.158
			v-0.985c-0.123-3.241-1.303-5.992-3.54-8.25c-2.237-2.257-4.925-3.386-8.065-3.386c-3.14,0-5.849,1.181-8.127,3.54
			C190.875,50.063,189.735,52.915,189.735,56.26z"/>
	</g>
	<g>
		<path fill="#AE362E" d="M255.613,55.183v0.246c0,0.411-0.145,0.739-0.432,0.985s-0.637,0.369-1.047,0.369h-24.75
			c0.164,3.284,1.375,6.034,3.633,8.25c2.256,2.217,4.945,3.325,8.064,3.325c2.012,0,3.879-0.493,5.604-1.478
			c1.724-0.985,3.098-2.318,4.125-4.002c0.492-0.821,1.148-0.985,1.97-0.493c0.821,0.575,0.985,1.273,0.493,2.094
			c-1.314,2.093-3.048,3.756-5.203,4.987c-2.154,1.231-4.484,1.847-6.988,1.847c-4.063,0-7.521-1.467-10.373-4.402
			c-2.854-2.934-4.279-6.484-4.279-10.651c0-4.165,1.426-7.727,4.279-10.682c2.852-2.955,6.258-4.433,10.22-4.433
			c3.96,0,7.315,1.345,10.066,4.032C253.744,47.866,255.283,51.202,255.613,55.183z M248.471,46.871
			c-2.135-1.848-4.607-2.771-7.419-2.771s-5.285,0.914-7.419,2.739c-2.135,1.827-3.489,4.178-4.063,7.05h22.842
			C251.918,51.058,250.604,48.718,248.471,46.871z"/>
	</g>
	<g>
		<path fill="#2B2B2B" d="M290.091,69.836v-4.371c-1.354,1.807-3.038,3.232-5.048,4.278c-2.012,1.047-4.188,1.57-6.527,1.57
			c-4.063,0-7.511-1.467-10.343-4.402c-2.832-2.934-4.249-6.484-4.249-10.651c0-4.165,1.417-7.727,4.249-10.682
			s6.28-4.433,10.343-4.433c2.34,0,4.516,0.533,6.527,1.601c2.01,1.067,3.693,2.504,5.048,4.31V29.694
			c0-0.41,0.154-0.759,0.462-1.047c0.309-0.286,0.666-0.431,1.078-0.431c0.409,0,0.758,0.145,1.046,0.431
			c0.286,0.288,0.431,0.637,0.431,1.047v40.143c0,0.411-0.145,0.76-0.431,1.047c-0.288,0.287-0.637,0.431-1.046,0.431
			c-0.412,0-0.77-0.144-1.078-0.431C290.245,70.596,290.091,70.247,290.091,69.836z M266.941,56.26c0,3.346,1.139,6.188,3.417,8.527
			s4.987,3.51,8.127,3.51s5.827-1.118,8.065-3.355c2.236-2.237,3.417-4.956,3.54-8.158v-0.985c-0.123-3.241-1.304-5.992-3.54-8.25
			c-2.238-2.257-4.926-3.386-8.065-3.386s-5.849,1.181-8.127,3.54C268.08,50.063,266.941,52.915,266.941,56.26z"/>
	</g>
	<g>
		<path fill="#2B2B2B" d="M306.652,34.188v-1.416c0-0.409,0.143-0.759,0.43-1.046s0.637-0.432,1.047-0.432s0.77,0.145,1.078,0.432
			c0.308,0.287,0.461,0.637,0.461,1.046v1.416c0,0.452-0.153,0.832-0.461,1.14c-0.309,0.308-0.668,0.462-1.078,0.462
			s-0.76-0.154-1.047-0.462S306.652,34.64,306.652,34.188z M306.652,69.836V42.623c0-0.41,0.143-0.76,0.43-1.047
			s0.646-0.431,1.078-0.431c0.431,0,0.789,0.144,1.077,0.431c0.287,0.287,0.431,0.637,0.431,1.047v27.213
			c0,0.411-0.153,0.76-0.461,1.047c-0.309,0.287-0.668,0.431-1.078,0.431s-0.76-0.144-1.047-0.431S306.652,70.247,306.652,69.836z"
			/>
	</g>
	<g>
		<path fill="#2B2B2B" d="M323.891,69.836V42.685c0-0.41,0.144-0.76,0.432-1.047c0.286-0.287,0.635-0.431,1.047-0.431
			c0.409,0,0.758,0.144,1.046,0.431c0.286,0.287,0.431,0.637,0.431,1.047v6.649c0.164-0.328,0.309-0.574,0.432-0.739
			c3.16-4.926,7.182-7.388,12.066-7.388c0.41,0,0.76,0.144,1.047,0.431s0.432,0.637,0.432,1.047s-0.145,0.76-0.432,1.047
			s-0.637,0.431-1.047,0.431c-3.283,0-6.197,1.642-8.742,4.925c-1.478,1.971-2.688,4.311-3.633,7.02
			c-0.082,0.164-0.123,0.329-0.123,0.492v13.237c0,0.411-0.145,0.76-0.431,1.047c-0.288,0.287-0.637,0.431-1.046,0.431
			c-0.412,0-0.761-0.144-1.047-0.431C324.034,70.596,323.891,70.247,323.891,69.836z"/>
	</g>
	<g>
		<path fill="#2B2B2B" d="M374.93,55.183v0.246c0,0.411-0.145,0.739-0.431,0.985c-0.288,0.246-0.637,0.369-1.047,0.369h-24.75
			c0.163,3.284,1.374,6.034,3.632,8.25c2.258,2.217,4.946,3.325,8.066,3.325c2.01,0,3.879-0.493,5.602-1.478
			c1.725-0.985,3.1-2.318,4.126-4.002c0.492-0.821,1.148-0.985,1.97-0.493c0.82,0.575,0.985,1.273,0.492,2.094
			c-1.313,2.093-3.047,3.756-5.202,4.987s-4.485,1.847-6.987,1.847c-4.064,0-7.522-1.467-10.375-4.402
			c-2.854-2.934-4.279-6.484-4.279-10.651c0-4.165,1.426-7.727,4.279-10.682c2.853-2.955,6.26-4.433,10.221-4.433
			s7.316,1.345,10.066,4.032C373.063,47.866,374.602,51.202,374.93,55.183z M367.788,46.871c-2.135-1.848-4.608-2.771-7.419-2.771
			c-2.813,0-5.285,0.914-7.419,2.739c-2.135,1.827-3.489,4.178-4.063,7.05h22.842C371.236,51.058,369.922,48.718,367.788,46.871z"/>
	</g>
</g>
</svg>
